<svg xmlns="http://www.w3.org/2000/svg" viewBox="0 0 100 100"><path d="M78 46.6c-2.9-3-6.9-4.6-11.1-4.6-4.2 0-8.2 1.6-11.2 4.6l-1.2 1.1-2.2-2.2 1.2-1.1c3-3 4.6-7 4.6-11.3 0-4.2-1.6-8.1-4.6-11.1L41.2 9.6C38.3 6.7 34.3 5 30.1 5c-4.3 0-8.2 1.6-11.2 4.6l-9.2 9.3c-3 3-4.6 6.9-4.6 11.2 0 4.2 1.6 8.2 4.6 11.2L22 53.6c3.1 2.9 7 4.6 11.2 4.6 4.2 0 8.1-1.6 11.2-4.6l1-1.2 2.3 2.2-1.1 1.2c-2.9 2.9-4.6 7-4.6 11.2 0 4.2 1.7 8.2 4.6 11.1l12.1 12.3c3.1 2.9 7 4.6 11.2 4.6 4.2 0 8.1-1.6 11.2-4.6l9.2-9.2c3-3.1 4.6-7 4.6-11.3 0-4.2-1.6-8.1-4.6-11.1L78 46.6zm-40.7 0c-2.2 2.2-6.2 2.2-8.5 0L16.7 34.3c-1.2-1.2-1.8-2.6-1.8-4.2s.6-3.1 1.8-4.2l9.3-9.3c1-1.1 2.6-1.7 4.2-1.7s3.1.6 4.2 1.7l12.3 12.3c1.1 1.2 1.7 2.6 1.7 4.2s-.6 3.1-1.7 4.3l-1.2 1.1-5.7-5.7c-1.8-1.9-5-1.9-7 0-1.9 1.9-1.9 5 0 7l5.7 5.7-1.2 1.1zm47.8 23.3c0 1.7-.6 3.2-1.7 4.3l-9.2 9.3c-2.2 2.2-6.1 2.2-8.4 0L53.5 71.1c-1.1-1.1-1.8-2.6-1.8-4.2s.7-3.1 1.8-4.2l1.1-1.2s5.5 5.5 5.8 5.7c1.9 1.9 5 1.9 6.9 0 2-1.9 2-5 0-7-.1-.3-5.7-5.7-5.7-5.7l1.2-1.1c1-1.2 2.6-1.8 4.2-1.8s3.1.7 4.2 1.8l12.3 12.2c1 1.3 1.6 2.7 1.6 4.3z"/></svg>